<svg width="178" height="178" viewBox="0 0 178 178" fill="none" xmlns="http://www.w3.org/2000/svg">
<rect width="178" height="178" fill="#00AB37"/>
<path d="M48.9205 155.273V164H47.8977L43.1421 157.148H43.0568V164H42V155.273H43.0227L47.7955 162.142H47.8807V155.273H48.9205ZM55.0238 161.324V157.455H56.0295V164H55.0238V162.892H54.9556C54.8022 163.224 54.5636 163.507 54.2397 163.74C53.9159 163.97 53.5068 164.085 53.0124 164.085C52.6034 164.085 52.2397 163.996 51.9215 163.817C51.6034 163.635 51.3534 163.362 51.1715 162.999C50.9897 162.632 50.8988 162.17 50.8988 161.614V157.455H51.9045V161.545C51.9045 162.023 52.038 162.403 52.3051 162.688C52.5749 162.972 52.9187 163.114 53.3363 163.114C53.5863 163.114 53.8406 163.05 54.0991 162.922C54.3605 162.794 54.5792 162.598 54.7553 162.334C54.9343 162.07 55.0238 161.733 55.0238 161.324ZM53.0124 156.568L54.0522 154.591H55.2284L53.8988 156.568H53.0124ZM57.8715 164V157.455H58.8431V158.477H58.9283C59.0646 158.128 59.2848 157.857 59.5888 157.663C59.8928 157.467 60.2578 157.369 60.684 157.369C61.1158 157.369 61.4752 157.467 61.7621 157.663C62.0519 157.857 62.2777 158.128 62.4396 158.477H62.5078C62.6754 158.139 62.9269 157.871 63.2621 157.672C63.5973 157.47 63.9993 157.369 64.4681 157.369C65.0533 157.369 65.532 157.553 65.9041 157.919C66.2763 158.283 66.4624 158.849 66.4624 159.619V164H65.4567V159.619C65.4567 159.136 65.3246 158.791 65.0604 158.584C64.7962 158.376 64.4851 158.273 64.1271 158.273C63.6669 158.273 63.3104 158.412 63.0575 158.69C62.8047 158.966 62.6783 159.315 62.6783 159.739V164H61.6556V159.517C61.6556 159.145 61.5348 158.845 61.2933 158.618C61.0519 158.388 60.7408 158.273 60.3601 158.273C60.0987 158.273 59.8544 158.342 59.6271 158.482C59.4027 158.621 59.2209 158.814 59.0817 159.061C58.9453 159.305 58.8771 159.588 58.8771 159.909V164H57.8715ZM71.0455 164.136C70.4148 164.136 69.8708 163.997 69.4134 163.719C68.9588 163.438 68.608 163.045 68.3608 162.543C68.1165 162.037 67.9943 161.449 67.9943 160.778C67.9943 160.108 68.1165 159.517 68.3608 159.006C68.608 158.491 68.9517 158.091 69.3921 157.804C69.8352 157.514 70.3523 157.369 70.9432 157.369C71.2841 157.369 71.6208 157.426 71.9531 157.54C72.2855 157.653 72.5881 157.838 72.8608 158.094C73.1335 158.347 73.3509 158.682 73.5128 159.099C73.6747 159.517 73.7557 160.031 73.7557 160.642V161.068H68.7102V160.199H72.733C72.733 159.83 72.6591 159.5 72.5114 159.21C72.3665 158.92 72.1591 158.692 71.8892 158.524C71.6222 158.357 71.3068 158.273 70.9432 158.273C70.5426 158.273 70.196 158.372 69.9034 158.571C69.6137 158.767 69.3906 159.023 69.2344 159.338C69.0781 159.653 69 159.991 69 160.352V160.932C69 161.426 69.0852 161.845 69.2557 162.189C69.429 162.53 69.6691 162.79 69.9759 162.969C70.2827 163.145 70.6392 163.233 71.0455 163.233C71.3097 163.233 71.5483 163.196 71.7614 163.122C71.9773 163.045 72.1634 162.932 72.3196 162.781C72.4759 162.628 72.5966 162.437 72.6818 162.21L73.6534 162.483C73.5512 162.812 73.3793 163.102 73.1378 163.352C72.8963 163.599 72.598 163.793 72.2429 163.932C71.8878 164.068 71.4887 164.136 71.0455 164.136ZM75.2855 164V157.455H76.2571V158.443H76.3253C76.4446 158.119 76.6605 157.857 76.973 157.655C77.2855 157.453 77.6378 157.352 78.0298 157.352C78.1037 157.352 78.196 157.354 78.3068 157.357C78.4176 157.359 78.5014 157.364 78.5583 157.369V158.392C78.5242 158.384 78.446 158.371 78.3239 158.354C78.2046 158.334 78.0781 158.324 77.9446 158.324C77.6264 158.324 77.3423 158.391 77.0923 158.524C76.8452 158.655 76.6492 158.837 76.5043 159.07C76.3622 159.3 76.2912 159.562 76.2912 159.858V164H75.2855ZM82.2102 164.136C81.6193 164.136 81.1009 163.996 80.6548 163.714C80.2117 163.433 79.8651 163.04 79.6151 162.534C79.3679 162.028 79.2443 161.437 79.2443 160.761C79.2443 160.08 79.3679 159.484 79.6151 158.976C79.8651 158.467 80.2117 158.072 80.6548 157.791C81.1009 157.51 81.6193 157.369 82.2102 157.369C82.8012 157.369 83.3182 157.51 83.7614 157.791C84.2074 158.072 84.554 158.467 84.8012 158.976C85.0512 159.484 85.1762 160.08 85.1762 160.761C85.1762 161.437 85.0512 162.028 84.8012 162.534C84.554 163.04 84.2074 163.433 83.7614 163.714C83.3182 163.996 82.8012 164.136 82.2102 164.136ZM82.2102 163.233C82.6591 163.233 83.0284 163.118 83.3182 162.888C83.608 162.658 83.8225 162.355 83.9617 161.98C84.1009 161.605 84.1705 161.199 84.1705 160.761C84.1705 160.324 84.1009 159.916 83.9617 159.538C83.8225 159.161 83.608 158.855 83.3182 158.622C83.0284 158.389 82.6591 158.273 82.2102 158.273C81.7614 158.273 81.3921 158.389 81.1023 158.622C80.8125 158.855 80.598 159.161 80.4588 159.538C80.3196 159.916 80.25 160.324 80.25 160.761C80.25 161.199 80.3196 161.605 80.4588 161.98C80.598 162.355 80.8125 162.658 81.1023 162.888C81.3921 163.118 81.7614 163.233 82.2102 163.233ZM92.5579 164.136C92.0124 164.136 91.5309 163.999 91.1133 163.723C90.6957 163.445 90.369 163.053 90.1332 162.547C89.8974 162.038 89.7795 161.438 89.7795 160.744C89.7795 160.057 89.8974 159.46 90.1332 158.955C90.369 158.449 90.6971 158.058 91.1176 157.783C91.538 157.507 92.0238 157.369 92.5749 157.369C93.0011 157.369 93.3377 157.44 93.5849 157.582C93.8349 157.722 94.0252 157.881 94.1559 158.06C94.2894 158.236 94.3931 158.381 94.467 158.494H94.5522V155.273H95.5579V164H94.5863V162.994H94.467C94.3931 163.114 94.288 163.264 94.1517 163.446C94.0153 163.625 93.8207 163.786 93.5678 163.928C93.315 164.067 92.9784 164.136 92.5579 164.136ZM92.6943 163.233C93.0977 163.233 93.4386 163.128 93.717 162.918C93.9954 162.705 94.207 162.411 94.3519 162.036C94.4968 161.658 94.5693 161.222 94.5693 160.727C94.5693 160.239 94.4982 159.811 94.3562 159.445C94.2142 159.075 94.0039 158.788 93.7255 158.584C93.4471 158.376 93.1034 158.273 92.6943 158.273C92.2681 158.273 91.913 158.382 91.6289 158.601C91.3477 158.817 91.136 159.111 90.994 159.483C90.8548 159.852 90.7852 160.267 90.7852 160.727C90.7852 161.193 90.8562 161.616 90.9982 161.997C91.1431 162.375 91.3562 162.676 91.6374 162.901C91.9215 163.122 92.2738 163.233 92.6943 163.233ZM99.4656 164.153C99.0508 164.153 98.6744 164.075 98.3363 163.919C97.9982 163.76 97.7298 163.531 97.5309 163.233C97.332 162.932 97.2326 162.568 97.2326 162.142C97.2326 161.767 97.3065 161.463 97.4542 161.23C97.6019 160.994 97.7994 160.81 98.0465 160.676C98.2937 160.543 98.5664 160.443 98.8647 160.378C99.1659 160.31 99.4684 160.256 99.7724 160.216C100.17 160.165 100.492 160.126 100.74 160.101C100.99 160.072 101.171 160.026 101.285 159.96C101.401 159.895 101.46 159.781 101.46 159.619V159.585C101.46 159.165 101.345 158.838 101.115 158.605C100.887 158.372 100.542 158.256 100.079 158.256C99.5991 158.256 99.2227 158.361 98.9499 158.571C98.6772 158.781 98.4855 159.006 98.3747 159.244L97.4201 158.903C97.5906 158.506 97.8178 158.196 98.1019 157.974C98.3889 157.75 98.7014 157.594 99.0394 157.506C99.3803 157.415 99.7156 157.369 100.045 157.369C100.255 157.369 100.497 157.395 100.769 157.446C101.045 157.494 101.311 157.595 101.566 157.749C101.825 157.902 102.039 158.134 102.21 158.443C102.38 158.753 102.465 159.168 102.465 159.688V164H101.46V163.114H101.409C101.34 163.256 101.227 163.408 101.068 163.57C100.909 163.732 100.697 163.869 100.433 163.983C100.168 164.097 99.8463 164.153 99.4656 164.153ZM99.619 163.25C100.017 163.25 100.352 163.172 100.624 163.016C100.9 162.859 101.107 162.658 101.247 162.411C101.389 162.163 101.46 161.903 101.46 161.631V160.71C101.417 160.761 101.323 160.808 101.178 160.851C101.036 160.891 100.872 160.926 100.684 160.957C100.499 160.986 100.319 161.011 100.143 161.034C99.9702 161.054 99.8292 161.071 99.7213 161.085C99.4599 161.119 99.2156 161.175 98.9883 161.251C98.7639 161.325 98.582 161.437 98.4428 161.588C98.3065 161.736 98.2383 161.937 98.2383 162.193C98.2383 162.543 98.3676 162.807 98.6261 162.986C98.8874 163.162 99.2184 163.25 99.619 163.25ZM112.312 158.92L111.409 159.176C111.352 159.026 111.268 158.879 111.157 158.737C111.05 158.592 110.902 158.473 110.714 158.379C110.527 158.286 110.287 158.239 109.994 158.239C109.594 158.239 109.26 158.331 108.993 158.516C108.729 158.697 108.596 158.929 108.596 159.21C108.596 159.46 108.687 159.658 108.869 159.803C109.051 159.947 109.335 160.068 109.721 160.165L110.693 160.403C111.278 160.545 111.714 160.763 112.001 161.055C112.288 161.345 112.432 161.719 112.432 162.176C112.432 162.551 112.324 162.886 112.108 163.182C111.895 163.477 111.596 163.71 111.213 163.881C110.829 164.051 110.383 164.136 109.875 164.136C109.207 164.136 108.655 163.991 108.217 163.702C107.78 163.412 107.503 162.989 107.386 162.432L108.341 162.193C108.432 162.545 108.604 162.81 108.856 162.986C109.112 163.162 109.446 163.25 109.858 163.25C110.327 163.25 110.699 163.151 110.974 162.952C111.253 162.75 111.392 162.509 111.392 162.227C111.392 162 111.312 161.81 111.153 161.656C110.994 161.5 110.75 161.384 110.42 161.307L109.329 161.051C108.73 160.909 108.29 160.689 108.008 160.391C107.73 160.089 107.591 159.713 107.591 159.261C107.591 158.892 107.694 158.565 107.902 158.281C108.112 157.997 108.398 157.774 108.758 157.612C109.122 157.45 109.534 157.369 109.994 157.369C110.642 157.369 111.15 157.511 111.52 157.795C111.892 158.08 112.156 158.455 112.312 158.92ZM116.605 164.136C116.014 164.136 115.495 163.996 115.049 163.714C114.606 163.433 114.259 163.04 114.009 162.534C113.762 162.028 113.639 161.437 113.639 160.761C113.639 160.08 113.762 159.484 114.009 158.976C114.259 158.467 114.606 158.072 115.049 157.791C115.495 157.51 116.014 157.369 116.605 157.369C117.195 157.369 117.713 157.51 118.156 157.791C118.602 158.072 118.948 158.467 119.195 158.976C119.445 159.484 119.57 160.08 119.57 160.761C119.57 161.437 119.445 162.028 119.195 162.534C118.948 163.04 118.602 163.433 118.156 163.714C117.713 163.996 117.195 164.136 116.605 164.136ZM116.605 163.233C117.053 163.233 117.423 163.118 117.713 162.888C118.002 162.658 118.217 162.355 118.356 161.98C118.495 161.605 118.565 161.199 118.565 160.761C118.565 160.324 118.495 159.916 118.356 159.538C118.217 159.161 118.002 158.855 117.713 158.622C117.423 158.389 117.053 158.273 116.605 158.273C116.156 158.273 115.786 158.389 115.497 158.622C115.207 158.855 114.992 159.161 114.853 159.538C114.714 159.916 114.644 160.324 114.644 160.761C114.644 161.199 114.714 161.605 114.853 161.98C114.992 162.355 115.207 162.658 115.497 162.888C115.786 163.118 116.156 163.233 116.605 163.233ZM121.106 164V157.455H122.077V158.443H122.145C122.265 158.119 122.481 157.857 122.793 157.655C123.106 157.453 123.458 157.352 123.85 157.352C123.924 157.352 124.016 157.354 124.127 157.357C124.238 157.359 124.322 157.364 124.378 157.369V158.392C124.344 158.384 124.266 158.371 124.144 158.354C124.025 158.334 123.898 158.324 123.765 158.324C123.447 158.324 123.162 158.391 122.912 158.524C122.665 158.655 122.469 158.837 122.324 159.07C122.182 159.3 122.111 159.562 122.111 159.858V164H121.106ZM128.827 157.455V158.307H125.435V157.455H128.827ZM126.424 155.886H127.43V162.125C127.43 162.409 127.471 162.622 127.553 162.764C127.638 162.903 127.746 162.997 127.877 163.045C128.01 163.091 128.151 163.114 128.299 163.114C128.41 163.114 128.501 163.108 128.572 163.097C128.643 163.082 128.699 163.071 128.742 163.062L128.947 163.966C128.878 163.991 128.783 164.017 128.661 164.043C128.539 164.071 128.384 164.085 128.197 164.085C127.912 164.085 127.634 164.024 127.361 163.902C127.091 163.78 126.867 163.594 126.688 163.344C126.512 163.094 126.424 162.778 126.424 162.398V155.886ZM133.014 164.136C132.383 164.136 131.839 163.997 131.382 163.719C130.927 163.438 130.577 163.045 130.329 162.543C130.085 162.037 129.963 161.449 129.963 160.778C129.963 160.108 130.085 159.517 130.329 159.006C130.577 158.491 130.92 158.091 131.361 157.804C131.804 157.514 132.321 157.369 132.912 157.369C133.253 157.369 133.589 157.426 133.922 157.54C134.254 157.653 134.557 157.838 134.829 158.094C135.102 158.347 135.319 158.682 135.481 159.099C135.643 159.517 135.724 160.031 135.724 160.642V161.068H130.679V160.199H134.702C134.702 159.83 134.628 159.5 134.48 159.21C134.335 158.92 134.128 158.692 133.858 158.524C133.591 158.357 133.275 158.273 132.912 158.273C132.511 158.273 132.165 158.372 131.872 158.571C131.582 158.767 131.359 159.023 131.203 159.338C131.047 159.653 130.969 159.991 130.969 160.352V160.932C130.969 161.426 131.054 161.845 131.224 162.189C131.398 162.53 131.638 162.79 131.944 162.969C132.251 163.145 132.608 163.233 133.014 163.233C133.278 163.233 133.517 163.196 133.73 163.122C133.946 163.045 134.132 162.932 134.288 162.781C134.444 162.628 134.565 162.437 134.65 162.21L135.622 162.483C135.52 162.812 135.348 163.102 135.106 163.352C134.865 163.599 134.567 163.793 134.211 163.932C133.856 164.068 133.457 164.136 133.014 164.136Z" fill="white"/>
<path fill-rule="evenodd" clip-rule="evenodd" d="M111.777 55.0358C100.257 52.8091 91.4574 50.6891 89.5241 50.2091L89.5108 50.0625L89.4974 50.0225C91.5241 49.5958 101.471 47.7025 112.257 48.6891C131.724 50.4758 129.471 24.2358 113.964 28.7958C119.604 14.0091 97.7908 8.0758 94.0441 27.4491C91.8041 39.0491 89.6574 47.8758 89.2041 49.7292C89.1641 49.7158 89.1241 49.7158 89.0841 49.7158L89.0308 49.7292C88.6174 47.7158 86.7108 37.7692 87.6974 26.9692C89.4841 7.50249 63.2441 9.75578 67.8041 25.2624C53.0041 19.6224 47.0841 41.4224 66.4574 45.1691C78.0441 47.4224 86.8708 49.5558 88.7374 50.0091C88.7241 50.0491 88.7108 50.1025 88.7241 50.1425V50.1958C86.6708 50.6225 76.7374 52.5158 65.9641 51.5291C46.5108 49.7425 48.7508 75.9824 64.2574 71.4224C58.6174 86.2091 80.4308 92.1291 84.1774 72.7558C86.1641 62.5558 88.0574 54.4891 88.7908 51.4358C89.0974 57.4491 88.4841 63.4758 87.2441 69.3424C85.9241 75.6491 83.9374 81.8091 81.8574 87.9425C79.6841 94.0358 77.6841 100.423 76.8574 107.009C75.9641 113.596 76.1108 120.382 77.4041 126.969V126.982L77.4174 127.049C77.6574 128.076 78.6841 128.716 79.7108 128.476C80.7508 128.223 81.3908 127.196 81.1508 126.169C79.7108 120.036 79.3108 113.676 79.9241 107.369C80.2174 104.209 80.7508 101.062 81.4841 97.9558C82.2041 94.8358 83.1508 91.7824 84.0841 88.6491C85.9374 82.4091 87.6974 76.1025 88.7774 69.6358C89.6574 64.4625 90.0574 59.1958 89.8174 53.9558C90.4574 58.2225 91.2308 65.5158 90.5241 73.2491C88.7374 92.7024 114.991 90.4625 110.431 74.9558C125.217 80.5958 131.151 58.7825 111.777 55.0358Z" fill="white"/>
</svg>
